<mxfile host="app.diagrams.net" modified="2023-07-25T05:01:19.243Z" agent="Mozilla/5.0 (Windows NT 10.0; Win64; x64) AppleWebKit/537.36 (KHTML, like Gecko) Chrome/114.0.0.0 Safari/537.36 AtContent/94.5.6734.35" etag="e7r-0DFcbxN7y1tjiaBh" version="21.6.2" type="device">
  <diagram name="Page-1" id="2cc2dc42-3aac-f2a9-1cec-7a8b7cbee084">
    <mxGraphModel dx="1100" dy="1030" grid="1" gridSize="10" guides="1" tooltips="1" connect="1" arrows="1" fold="1" page="1" pageScale="1" pageWidth="1100" pageHeight="850" background="none" math="0" shadow="0">
      <root>
        <mxCell id="0" />
        <mxCell id="1" parent="0" />
        <mxCell id="7026571954dc6520-1" value="" style="strokeWidth=1;shadow=0;dashed=0;align=center;html=1;shape=mxgraph.mockup.containers.browserWindow;rSize=0;strokeColor=#666666;mainText=,;recursiveResize=0;rounded=0;labelBackgroundColor=none;fontFamily=Verdana;fontSize=12" parent="1" vertex="1">
          <mxGeometry x="30" y="30" width="1050" height="910" as="geometry" />
        </mxCell>
        <mxCell id="7026571954dc6520-2" value="Page 1" style="strokeWidth=1;shadow=0;dashed=0;align=center;html=1;shape=mxgraph.mockup.containers.anchor;fontSize=17;fontColor=#666666;align=left;" parent="7026571954dc6520-1" vertex="1">
          <mxGeometry x="60" y="12" width="110" height="26" as="geometry" />
        </mxCell>
        <mxCell id="7026571954dc6520-3" value="https://www.default.com" style="strokeWidth=1;shadow=0;dashed=0;align=center;html=1;shape=mxgraph.mockup.containers.anchor;rSize=0;fontSize=17;fontColor=#666666;align=left;" parent="7026571954dc6520-1" vertex="1">
          <mxGeometry x="130" y="60" width="250" height="26" as="geometry" />
        </mxCell>
        <mxCell id="uhM66o-gRaHObOTEZNcO-1" value="" style="verticalLabelPosition=bottom;shadow=0;dashed=0;align=center;html=1;verticalAlign=top;strokeWidth=1;shape=mxgraph.mockup.graphics.simpleIcon;strokeColor=#999999;fillColor=#ffffff;rounded=0;labelBackgroundColor=none;fontFamily=Verdana;fontSize=12;fontColor=#000000;" vertex="1" parent="7026571954dc6520-1">
          <mxGeometry y="110" width="1050" height="800" as="geometry" />
        </mxCell>
        <mxCell id="uhM66o-gRaHObOTEZNcO-2" value="" style="rounded=1;whiteSpace=wrap;html=1;arcSize=6;" vertex="1" parent="7026571954dc6520-1">
          <mxGeometry x="310" y="250" width="400" height="590" as="geometry" />
        </mxCell>
        <mxCell id="uhM66o-gRaHObOTEZNcO-6" value="" style="rounded=1;whiteSpace=wrap;html=1;arcSize=25;" vertex="1" parent="7026571954dc6520-1">
          <mxGeometry x="375" y="360" width="270" height="60" as="geometry" />
        </mxCell>
        <mxCell id="uhM66o-gRaHObOTEZNcO-7" value="Email" style="text;html=1;strokeColor=none;fillColor=none;align=left;verticalAlign=middle;whiteSpace=wrap;rounded=0;fontSize=13;" vertex="1" parent="7026571954dc6520-1">
          <mxGeometry x="400" y="375" width="150" height="30" as="geometry" />
        </mxCell>
        <mxCell id="uhM66o-gRaHObOTEZNcO-11" value="" style="verticalLabelPosition=bottom;shadow=0;dashed=0;align=center;html=1;verticalAlign=top;strokeWidth=1;shape=mxgraph.mockup.graphics.simpleIcon;strokeColor=#999999;" vertex="1" parent="7026571954dc6520-1">
          <mxGeometry x="20" y="130" width="240" height="60" as="geometry" />
        </mxCell>
        <mxCell id="uhM66o-gRaHObOTEZNcO-12" value="MyTasks" style="rounded=1;whiteSpace=wrap;html=1;" vertex="1" parent="7026571954dc6520-1">
          <mxGeometry x="770" y="140" width="120" height="40" as="geometry" />
        </mxCell>
        <mxCell id="uhM66o-gRaHObOTEZNcO-27" value="Login" style="rounded=1;whiteSpace=wrap;html=1;arcSize=38;" vertex="1" parent="7026571954dc6520-1">
          <mxGeometry x="900" y="140" width="120" height="40" as="geometry" />
        </mxCell>
        <mxCell id="uhM66o-gRaHObOTEZNcO-29" value="&lt;h1 style=&quot;font-size: 11px;&quot;&gt;Not registered yet?&lt;/h1&gt;" style="text;html=1;strokeColor=none;fillColor=none;spacing=5;spacingTop=-20;whiteSpace=wrap;overflow=hidden;rounded=0;align=center;verticalAlign=middle;fontSize=11;" vertex="1" parent="7026571954dc6520-1">
          <mxGeometry x="338" y="260" width="365" height="50" as="geometry" />
        </mxCell>
        <mxCell id="uhM66o-gRaHObOTEZNcO-30" value="&lt;h1&gt;Sign up&lt;/h1&gt;" style="text;html=1;strokeColor=none;fillColor=none;spacing=5;spacingTop=-20;whiteSpace=wrap;overflow=hidden;rounded=0;align=center;verticalAlign=middle;" vertex="1" parent="7026571954dc6520-1">
          <mxGeometry x="338" y="300" width="365" height="50" as="geometry" />
        </mxCell>
        <mxCell id="uhM66o-gRaHObOTEZNcO-31" value="" style="verticalLabelPosition=bottom;shadow=0;dashed=0;align=center;html=1;verticalAlign=top;strokeWidth=1;shape=mxgraph.mockup.graphics.simpleIcon;strokeColor=#999999;" vertex="1" parent="7026571954dc6520-1">
          <mxGeometry x="600" y="380" width="20" height="20" as="geometry" />
        </mxCell>
        <mxCell id="uhM66o-gRaHObOTEZNcO-32" value="" style="rounded=1;whiteSpace=wrap;html=1;arcSize=25;" vertex="1" parent="7026571954dc6520-1">
          <mxGeometry x="375" y="440" width="270" height="60" as="geometry" />
        </mxCell>
        <mxCell id="uhM66o-gRaHObOTEZNcO-33" value="Username" style="text;html=1;strokeColor=none;fillColor=none;align=left;verticalAlign=middle;whiteSpace=wrap;rounded=0;fontSize=13;" vertex="1" parent="7026571954dc6520-1">
          <mxGeometry x="400" y="455" width="150" height="30" as="geometry" />
        </mxCell>
        <mxCell id="uhM66o-gRaHObOTEZNcO-34" value="" style="verticalLabelPosition=bottom;shadow=0;dashed=0;align=center;html=1;verticalAlign=top;strokeWidth=1;shape=mxgraph.mockup.graphics.simpleIcon;strokeColor=#999999;" vertex="1" parent="7026571954dc6520-1">
          <mxGeometry x="600" y="460" width="20" height="20" as="geometry" />
        </mxCell>
        <mxCell id="uhM66o-gRaHObOTEZNcO-35" value="" style="rounded=1;whiteSpace=wrap;html=1;arcSize=25;" vertex="1" parent="7026571954dc6520-1">
          <mxGeometry x="375" y="520" width="270" height="60" as="geometry" />
        </mxCell>
        <mxCell id="uhM66o-gRaHObOTEZNcO-36" value="Password" style="text;html=1;strokeColor=none;fillColor=none;align=left;verticalAlign=middle;whiteSpace=wrap;rounded=0;fontSize=13;" vertex="1" parent="7026571954dc6520-1">
          <mxGeometry x="400" y="535" width="150" height="30" as="geometry" />
        </mxCell>
        <mxCell id="uhM66o-gRaHObOTEZNcO-37" value="" style="verticalLabelPosition=bottom;shadow=0;dashed=0;align=center;html=1;verticalAlign=top;strokeWidth=1;shape=mxgraph.mockup.graphics.simpleIcon;strokeColor=#999999;" vertex="1" parent="7026571954dc6520-1">
          <mxGeometry x="600" y="540" width="20" height="20" as="geometry" />
        </mxCell>
        <mxCell id="uhM66o-gRaHObOTEZNcO-38" value="" style="rounded=1;whiteSpace=wrap;html=1;arcSize=25;" vertex="1" parent="7026571954dc6520-1">
          <mxGeometry x="375" y="600" width="270" height="60" as="geometry" />
        </mxCell>
        <mxCell id="uhM66o-gRaHObOTEZNcO-39" value="Retype Password" style="text;html=1;strokeColor=none;fillColor=none;align=left;verticalAlign=middle;whiteSpace=wrap;rounded=0;fontSize=13;" vertex="1" parent="7026571954dc6520-1">
          <mxGeometry x="400" y="615" width="150" height="30" as="geometry" />
        </mxCell>
        <mxCell id="uhM66o-gRaHObOTEZNcO-40" value="" style="verticalLabelPosition=bottom;shadow=0;dashed=0;align=center;html=1;verticalAlign=top;strokeWidth=1;shape=mxgraph.mockup.graphics.simpleIcon;strokeColor=#999999;" vertex="1" parent="7026571954dc6520-1">
          <mxGeometry x="600" y="620" width="20" height="20" as="geometry" />
        </mxCell>
        <mxCell id="uhM66o-gRaHObOTEZNcO-41" value="Sign Up" style="rounded=1;whiteSpace=wrap;html=1;arcSize=25;" vertex="1" parent="7026571954dc6520-1">
          <mxGeometry x="375" y="710" width="270" height="60" as="geometry" />
        </mxCell>
        <mxCell id="uhM66o-gRaHObOTEZNcO-42" value="Show your password" style="text;html=1;strokeColor=none;fillColor=none;align=center;verticalAlign=middle;whiteSpace=wrap;rounded=0;" vertex="1" parent="7026571954dc6520-1">
          <mxGeometry x="435" y="670" width="180" height="30" as="geometry" />
        </mxCell>
        <mxCell id="uhM66o-gRaHObOTEZNcO-43" value="" style="rounded=0;whiteSpace=wrap;html=1;" vertex="1" parent="7026571954dc6520-1">
          <mxGeometry x="435" y="677.5" width="15" height="15" as="geometry" />
        </mxCell>
        <mxCell id="uhM66o-gRaHObOTEZNcO-44" value="Already have an account? Login" style="text;html=1;strokeColor=none;fillColor=none;align=center;verticalAlign=middle;whiteSpace=wrap;rounded=0;" vertex="1" parent="7026571954dc6520-1">
          <mxGeometry x="420" y="780" width="180" height="30" as="geometry" />
        </mxCell>
      </root>
    </mxGraphModel>
  </diagram>
</mxfile>
